<svg width="69" height="61" viewBox="0 0 69 61" fill="none" xmlns="http://www.w3.org/2000/svg">
<g clip-path="url(#clip0_2_31)">
<path d="M3.83333 5.71875C3.83333 2.56033 6.40766 0 9.58333 0C12.7578 0 15.3333 2.56033 15.3333 5.71875C15.3333 8.87717 12.7578 11.4375 9.58333 11.4375C6.40766 11.4375 3.83333 8.87717 3.83333 5.71875ZM14.1714 15.25C15.5849 15.25 17.1901 15.5479 18.5917 16.1316L34.6557 22.7797C36.249 20.385 38.3453 18.6574 41.0526 17.5018L42.3703 16.918C44.862 15.8219 47.4495 15.25 50.2766 15.25C55.6193 15.25 60.4349 18.443 62.4833 23.3396L64.2203 27.724L66.8797 28.9988C68.7724 29.94 69.5391 32.2275 68.5927 34.11C67.6463 35.9924 65.3464 36.7549 63.4536 35.8137L60.2552 34.2291C59.0214 33.6096 58.051 32.573 57.524 31.3102L56.374 28.5699L54.062 36.3736L59.9917 42.8191C60.6385 43.5221 61.1057 44.368 61.3333 45.2973L64.0885 56.2582C64.6036 58.3074 63.3578 60.3805 61.3094 60.8809C59.249 61.3932 57.1646 60.1541 56.5536 58.1168L54.0141 47.6086L45.5568 38.4229C43.7838 36.5047 43.0172 33.824 43.7958 31.3102L45.8203 23.7447C45.7125 23.7924 45.5927 23.84 45.4849 23.8877L44.1672 24.4715C42.3344 25.2816 40.8969 26.759 40.1542 28.6057L39.9745 29.0584C39.3635 30.5834 37.8661 31.5008 36.2969 31.3459C35.8417 31.4412 35.3865 31.3459 34.9432 31.1553L20.7599 25.2816L27.6958 56.3654C28.163 58.4146 26.8573 60.452 24.7849 60.9047C22.7245 61.3693 20.676 60.0707 20.2208 58.0096L16.6271 41.9375H14.7464L17.2021 56.5561C17.5495 58.641 16.1359 60.6068 14.0516 60.9523C11.9588 61.2979 9.98344 59.892 9.63604 57.8189L6.75026 40.6031C6.04708 41.4133 5.0013 41.9375 3.83333 41.9375C1.71661 41.9375 0 40.2338 0 38.0178V22.7678C0 18.6693 3.43203 15.1428 7.66667 15.1428L14.1714 15.25ZM49.8333 5.71875C49.8333 2.56033 52.4089 0 55.5833 0C58.7578 0 61.3333 2.56033 61.3333 5.71875C61.3333 8.87717 58.7578 11.4375 55.5833 11.4375C52.4089 11.4375 49.8333 8.87717 49.8333 5.71875ZM42.7297 41.0082L47.6052 46.298L45.8682 50.6109C45.5807 51.3377 45.1495 51.993 44.5984 52.5291L37.2073 59.8801C35.7099 61.3693 33.2901 61.3693 31.7927 59.8801C30.2953 58.3908 30.2953 55.9842 31.7927 54.4949L38.8964 47.418L41.8911 39.9836C42.1427 40.341 42.4302 40.6746 42.7297 41.0082Z" fill="black"/>
</g>
<defs>
<clipPath id="clip0_2_31">
<rect width="69" height="61" fill="white"/>
</clipPath>
</defs>
</svg>
