<svg width="41" height="66" viewBox="0 0 41 66" fill="none" xmlns="http://www.w3.org/2000/svg">
<g clip-path="url(#clip0_2_19)">
<path d="M26.6499 6.1875C26.6499 9.6048 23.8953 12.375 20.4999 12.375C17.1046 12.375 14.3499 9.6048 14.3499 6.1875C14.3499 2.7702 17.1046 0 20.4999 0C23.8953 0 26.6499 2.7702 26.6499 6.1875ZM19.4749 45.375V61.875C19.4749 64.1566 17.6428 66 15.3749 66C13.1071 66 11.2749 64.1566 11.2749 61.875V33.116L7.61442 39.252C6.44848 41.1984 3.92954 41.8301 1.98845 40.657C0.0473024 39.484 -0.580587 36.9574 0.585863 34.998L8.0526 22.507C10.2756 18.7816 14.2731 16.5 18.5909 16.5H22.409C26.7268 16.5 30.7243 18.7816 32.9537 22.507L40.4106 34.998C41.5765 36.9574 40.9487 39.484 39.014 40.657C37.0665 41.8301 34.5553 41.1984 33.3893 39.252L29.7249 33.116V61.875C29.7249 64.1566 27.8928 66 25.6249 66C23.3571 66 21.5249 64.1566 21.5249 61.875V45.375H19.4749Z" fill="black"/>
</g>
<defs>
<clipPath id="clip0_2_19">
<rect width="41" height="66" fill="white"/>
</clipPath>
</defs>
</svg>
